<svg width="37" height="41" viewBox="0 0 37 41" fill="none" xmlns="http://www.w3.org/2000/svg">
<path fill-rule="evenodd" clip-rule="evenodd" d="M19 6C10.7157 6 4 12.7157 4 21C4 29.2843 10.7157 36 19 36C27.2843 36 34 29.2843 34 21C34 12.7157 27.2843 6 19 6ZM18.5822 18.7112L18.5508 18.1922C18.4563 16.8469 19.2852 15.6182 20.5967 15.1415C21.0794 14.9721 21.8978 14.9509 22.4329 15.0992C22.6427 15.1627 23.0414 15.3746 23.3247 15.5652L23.8388 15.9148L24.4054 15.7347C24.7202 15.6394 25.1398 15.4805 25.3287 15.3746C25.5071 15.2792 25.6645 15.2263 25.6645 15.2581C25.6645 15.4381 25.2762 16.0525 24.951 16.3915C24.5103 16.8681 24.6362 16.9105 25.5281 16.5927C26.0632 16.4126 26.0737 16.4126 25.9687 16.6139C25.9058 16.7198 25.5805 17.0906 25.2343 17.4295C24.6467 18.0121 24.6152 18.0757 24.6152 18.5629C24.6152 19.315 24.2585 20.8827 23.9018 21.7407C23.2408 23.3507 21.8243 25.0138 20.4079 25.8506C18.4144 27.0264 15.7598 27.3229 13.525 26.6344C12.78 26.4014 11.5 25.8082 11.5 25.7023C11.5 25.6705 11.8882 25.6281 12.3604 25.6175C13.3466 25.5964 14.3329 25.321 15.1723 24.8337L15.7388 24.4947L15.0883 24.2723C14.165 23.9545 13.3361 23.2236 13.1263 22.5351C13.0633 22.3127 13.0843 22.3021 13.6719 22.3021L14.2804 22.2915L13.7663 22.0479C13.1578 21.7407 12.6017 21.2217 12.3289 20.692C12.1295 20.3107 11.8777 19.3468 11.9512 19.2726C11.9721 19.2408 12.1925 19.3044 12.4443 19.3891C13.1683 19.654 13.2627 19.5904 12.843 19.1455C12.0561 18.3405 11.8148 17.1435 12.1925 16.0101L12.3709 15.5017L13.0633 16.1902C14.4798 17.5778 16.148 18.404 18.0576 18.6477L18.5822 18.7112Z" fill="white"/>
</svg>
