<svg width="37" height="41" viewBox="0 0 37 41" fill="none" xmlns="http://www.w3.org/2000/svg">
<path fill-rule="evenodd" clip-rule="evenodd" d="M19 6C10.7157 6 4 12.7157 4 21C4 29.2843 10.7157 36 19 36C27.2843 36 34 29.2843 34 21C34 12.7157 27.2843 6 19 6ZM15.702 13.0483C16.5554 13.0095 16.8281 13 19.0007 13H18.9983C21.1716 13 21.4433 13.0095 22.2966 13.0483C23.1483 13.0873 23.73 13.2222 24.24 13.42C24.7666 13.6242 25.2116 13.8975 25.6567 14.3425C26.1017 14.7872 26.375 15.2335 26.58 15.7597C26.7767 16.2684 26.9117 16.8497 26.9517 17.7014C26.99 18.5547 27 18.8274 27 21.0001C27 23.1728 26.99 23.4448 26.9517 24.2981C26.9117 25.1495 26.7767 25.731 26.58 26.2398C26.375 26.7658 26.1017 27.2121 25.6567 27.6568C25.2121 28.1018 24.7665 28.3758 24.2405 28.5802C23.7315 28.778 23.1495 28.9128 22.2978 28.9518C21.4444 28.9907 21.1726 29.0002 18.9998 29.0002C16.8272 29.0002 16.5547 28.9907 15.7014 28.9518C14.8499 28.9128 14.2684 28.778 13.7594 28.5802C13.2335 28.3758 12.7872 28.1018 12.3427 27.6568C11.8978 27.2121 11.6245 26.7658 11.42 26.2396C11.2223 25.731 11.0875 25.1496 11.0483 24.298C11.0097 23.4446 11 23.1728 11 21.0001C11 18.8274 11.01 18.5546 11.0482 17.7012C11.0865 16.8499 11.2215 16.2684 11.4198 15.7595C11.6248 15.2335 11.8982 14.7872 12.3432 14.3425C12.7879 13.8977 13.2342 13.6243 13.7604 13.42C14.269 13.2222 14.8504 13.0873 15.702 13.0483Z" fill="white"/>
<path fill-rule="evenodd" clip-rule="evenodd" d="M18.2831 14.4417C18.4225 14.4415 18.5724 14.4415 18.7341 14.4416L19.0008 14.4417C21.1368 14.4417 21.39 14.4494 22.2335 14.4877C23.0135 14.5234 23.4368 14.6537 23.7188 14.7632C24.0922 14.9082 24.3583 15.0815 24.6382 15.3615C24.9182 15.6415 25.0915 15.9082 25.2368 16.2815C25.3464 16.5632 25.4769 16.9866 25.5124 17.7666C25.5507 18.6099 25.559 18.8632 25.559 20.9983C25.559 23.1333 25.5507 23.3866 25.5124 24.23C25.4767 25.01 25.3464 25.4333 25.2368 25.715C25.0918 26.0883 24.9182 26.3542 24.6382 26.634C24.3582 26.914 24.0923 27.0873 23.7188 27.2323C23.4372 27.3423 23.0135 27.4723 22.2335 27.508C21.3901 27.5463 21.1368 27.5547 19.0008 27.5547C16.8646 27.5547 16.6114 27.5463 15.7681 27.508C14.9881 27.472 14.5647 27.3417 14.2826 27.2322C13.9092 27.0872 13.6426 26.9138 13.3626 26.6338C13.0826 26.3538 12.9092 26.0878 12.7639 25.7143C12.6544 25.4326 12.5239 25.0093 12.4884 24.2293C12.45 23.386 12.4424 23.1326 12.4424 20.9963C12.4424 18.8599 12.45 18.6079 12.4884 17.7646C12.5241 16.9846 12.6544 16.5612 12.7639 16.2792C12.9089 15.9059 13.0826 15.6392 13.3626 15.3592C13.6426 15.0792 13.9092 14.9059 14.2826 14.7605C14.5646 14.6505 14.9881 14.5205 15.7681 14.4847C16.5061 14.4514 16.7921 14.4414 18.2831 14.4397V14.4417ZM23.2712 15.77C22.7412 15.77 22.3112 16.1995 22.3112 16.7297C22.3112 17.2597 22.7412 17.6897 23.2712 17.6897C23.8012 17.6897 24.2312 17.2597 24.2312 16.7297C24.2312 16.1997 23.8012 15.7697 23.2712 15.7697V15.77ZM14.8924 21.0001C14.8924 18.7313 16.7318 16.8918 19.0006 16.8917C21.2695 16.8917 23.1085 18.7312 23.1085 21.0001C23.1085 23.269 21.2696 25.1076 19.0008 25.1076C16.7319 25.1076 14.8924 23.269 14.8924 21.0001Z" fill="white"/>
<path fill-rule="evenodd" clip-rule="evenodd" d="M19.0008 18.3335C20.4735 18.3335 21.6675 19.5273 21.6675 21.0002C21.6675 22.4729 20.4735 23.6669 19.0008 23.6669C17.528 23.6669 16.3341 22.4729 16.3341 21.0002C16.3341 19.5273 17.528 18.3335 19.0008 18.3335V18.3335Z" fill="white"/>
</svg>
